{"title":"Happy Tugs Meat Massager - Mia Li.mp4","uid":9149659,"size":395558762,"categoryP":"porn","categoryS":"movie_clips","magnet":"?xt=urn:btih:7ed43b808840ab719d6879a95d3c85ac207aebd1&amp;dn=Happy+Tugs+Meat+Massager+-+Mia+Li.mp4&amp;tr=udp%3A%2F%2Ftracker.openbittorrent.com%3A80&amp;tr=udp%3A%2F%2Fopen.demonii.com%3A1337&amp;tr=udp%3A%2F%2Ftracker.coppersurfer.tk%3A6969&amp;tr=udp%3A%2F%2Fexodus.desync.com%3A6969","seeders":4,"leechers":5,"uploader":null,"files":1,"time":1383665569,"description":" &lt;a href=&quot;http://bayimg.com/MAcheaAFA&quot; rel=&quot;nofollow&quot; target=&quot;_NEW&quot;&gt;http://bayimg.com/MAcheaAFA&lt;/a&gt;\n\nMia Li is in for a massage when she decides to go forward with full handjob-blowjob-fucking service.\n\nFormat : MPEG-4\nFormat profile : Base Media / Version 2\nCodec ID : mp42\nFile size : 377 MiB\nDuration : 34mn 15s\nOverall bit rate mode : Variable\nOverall bit rate : 1 539 Kbps\nEncoded date : UTC 2013-10-25 16:39:35\nTagged date : UTC 2013-10-25 16:39:35\nWriting library : Apple QuickTime\n\nVideo\nID : 1\nFormat : AVC\nFormat/Info : Advanced Video Codec\nFormat profile : &lt;a class=&quot;__cf_email__&quot; href=&quot;/cdn-cgi/l/email-protection&quot; data-cfemail=&quot;bef3dfd7d0fef28d908e&quot;&gt;[email&amp;#160;protected]&lt;/a&gt;&lt;script cf-hash='f9e31' type=&quot;text/javascript&quot;&gt;\n/* &lt;![CDATA[ */!function(){try{var t=&quot;currentScript&quot;in document?document.currentScript:function(){for(var t=document.getElementsByTagName(&quot;script&quot;),e=t.length;e--;)if(t[e].getAttribute(&quot;cf-hash&quot;))return t[e]}();if(t&amp;&amp;t.previousSibling){var e,r,n,i,c=t.previousSibling,a=c.getAttribute(&quot;data-cfemail&quot;);if(a){for(e=&quot;&quot;,r=parseInt(a.substr(0,2),16),n=2;a.length-n;n+=2)i=parseInt(a.substr(n,2),16)^r,e+=String.fromCharCode(i);e=document.createTextNode(e),c.parentNode.replaceChild(e,c)}}}catch(u){}}();/* ]]&gt; */&lt;/script&gt;\nFormat settings, CABAC : No\nFormat settings, ReFrames : 6 frames\nCodec ID : avc1\nCodec ID/Info : Advanced Video Coding\nDuration : 34mn 15s\nSource duration : 34mn 15s\nBit rate mode : Variable\nBit rate : 1 438 Kbps\nMaximum bit rate : 1 500 Kbps\nWidth : 768 pixels\nHeight : 432 pixels\nDisplay aspect ratio : 16:9\nFrame rate mode : Constant\nFrame rate : 29.970 fps\nStandard : Component\nColor space : YUV\nChroma subsampling : 4:2:0\nBit depth : 8 bits\nScan type : Progressive\nBits/(Pixel*Frame) : 0.145\nStream size : 352 MiB (93%)\nSource stream size : 368 MiB (98%)\nEncoded date : UTC 2013-10-25 16:39:35\nTagged date : UTC 2013-10-28 15:35:59\n\nAudio\nID : 2\nFormat : AAC\nFormat/Info : Advanced Audio Codec\nFormat profile : LC\nCodec ID : 40\nDuration : 34mn 15s\nBit rate mode : Variable\nBit rate : 32.0 Kbps\nMaximum bit rate : 35.4 Kbps\nChannel(s) : 1 channel\nChannel positions : Front: C\nSampling rate : 32.0 KHz\nCompression mode : Lossy\nStream size : 7.84 MiB (2%)\nEncoded date : UTC 2013-10-25 16:39:35\nTagged date : UTC 2013-10-28 15:35:59","torrent":{"xt":"urn:btih:7ed43b808840ab719d6879a95d3c85ac207aebd1","amp;dn":"Happy+Tugs+Meat+Massager+-+Mia+Li.mp4","amp;tr":["udp%3A%2F%2Ftracker.openbittorrent.com%3A80","udp%3A%2F%2Fopen.demonii.com%3A1337","udp%3A%2F%2Ftracker.coppersurfer.tk%3A6969","udp%3A%2F%2Fexodus.desync.com%3A6969"],"infoHash":"7ed43b808840ab719d6879a95d3c85ac207aebd1","infoHashBuffer":{"type":"Buffer","data":[126,212,59,128,136,64,171,113,157,104,121,169,93,60,133,172,32,122,235,209]},"announce":[],"urlList":[]}}